name rise35.5848peak51.9257fall54.8793.mot
datacolumns 19
datarows 33
range 7.56829600000000 7.62163700000000
endheader
time	ground_force1_vx	ground_force1_vy	ground_force1_vz	ground_force1_px	ground_force1_py	ground_force1_pz	ground_force2_vx	ground_force2_vy	ground_force2_vz	ground_force2_px	ground_force2_py	ground_force2_pz	ground_torque1_x	ground_torque1_y	ground_torque1_z	ground_torque2_x	ground_torque2_y	ground_torque2_z	
7.56829600000000	51.34442900000000	758.02978900000005	61.11952300000000	0.28106600000000	0.00000000000000	0.12017800000000	0.00000000000000	0.00000000000000	0.00000000000000	0.00000000000000	0.00000000000000	0.00000000000000	0.00000000000000	21.95364800000000	0.00000000000000	0.00000000000000	0.00000000000000	0.00000000000000	
7.56996800000000	50.78051700000000	761.02529900000002	61.33803000000000	0.28023000000000	0.00000000000000	0.12017800000000	0.00000000000000	0.00000000000000	0.00000000000000	0.00000000000000	0.00000000000000	0.00000000000000	0.00000000000000	22.09350000000000	0.00000000000000	0.00000000000000	0.00000000000000	0.00000000000000	
7.57163600000000	50.21806000000000	763.88663099999997	61.54699300000000	0.27940400000000	0.00000000000000	0.12017900000000	0.00000000000000	0.00000000000000	0.00000000000000	0.00000000000000	0.00000000000000	0.00000000000000	0.00000000000000	22.22846400000000	0.00000000000000	0.00000000000000	0.00000000000000	0.00000000000000	
7.57330800000000	49.65777100000000	766.61312799999996	61.74627200000000	0.27858700000000	0.00000000000000	0.12017900000000	0.00000000000000	0.00000000000000	0.00000000000000	0.00000000000000	0.00000000000000	0.00000000000000	0.00000000000000	22.35830600000000	0.00000000000000	0.00000000000000	0.00000000000000	0.00000000000000	
7.57496600000000	49.10029800000000	769.20425799999998	61.93570400000000	0.27777900000000	0.00000000000000	0.12017800000000	0.00000000000000	0.00000000000000	0.00000000000000	0.00000000000000	0.00000000000000	0.00000000000000	0.00000000000000	22.48278500000000	0.00000000000000	0.00000000000000	0.00000000000000	0.00000000000000	
7.57663400000000	48.54622600000000	771.65961800000002	62.11510200000000	0.27697800000000	0.00000000000000	0.12017800000000	0.00000000000000	0.00000000000000	0.00000000000000	0.00000000000000	0.00000000000000	0.00000000000000	0.00000000000000	22.60165700000000	0.00000000000000	0.00000000000000	0.00000000000000	0.00000000000000	
7.57829800000000	47.99607500000000	773.97894399999996	62.28425900000000	0.27618300000000	0.00000000000000	0.12017700000000	0.00000000000000	0.00000000000000	0.00000000000000	0.00000000000000	0.00000000000000	0.00000000000000	0.00000000000000	22.71467500000000	0.00000000000000	0.00000000000000	0.00000000000000	0.00000000000000	
7.57996400000000	47.45030400000000	776.16211199999998	62.44295000000000	0.27539400000000	0.00000000000000	0.12017700000000	0.00000000000000	0.00000000000000	0.00000000000000	0.00000000000000	0.00000000000000	0.00000000000000	0.00000000000000	22.82159200000000	0.00000000000000	0.00000000000000	0.00000000000000	0.00000000000000	
7.58163100000000	46.90931300000000	778.20914600000003	62.59094000000000	0.27460900000000	0.00000000000000	0.12017600000000	0.00000000000000	0.00000000000000	0.00000000000000	0.00000000000000	0.00000000000000	0.00000000000000	0.00000000000000	22.92216500000000	0.00000000000000	0.00000000000000	0.00000000000000	0.00000000000000	
7.58330600000000	46.37344500000000	780.12022500000000	62.72798000000000	0.27382700000000	0.00000000000000	0.12017500000000	0.00000000000000	0.00000000000000	0.00000000000000	0.00000000000000	0.00000000000000	0.00000000000000	0.00000000000000	23.01615300000000	0.00000000000000	0.00000000000000	0.00000000000000	0.00000000000000	
7.58496300000000	45.84298700000000	781.89568199999997	62.85382000000000	0.27304800000000	0.00000000000000	0.12017300000000	0.00000000000000	0.00000000000000	0.00000000000000	0.00000000000000	0.00000000000000	0.00000000000000	0.00000000000000	23.10332400000000	0.00000000000000	0.00000000000000	0.00000000000000	0.00000000000000	
7.58663000000000	45.31817500000000	783.53601200000003	62.96820400000000	0.27227000000000	0.00000000000000	0.12017200000000	0.00000000000000	0.00000000000000	0.00000000000000	0.00000000000000	0.00000000000000	0.00000000000000	0.00000000000000	23.18345200000000	0.00000000000000	0.00000000000000	0.00000000000000	0.00000000000000	
7.58830300000000	44.79919400000000	785.04187400000001	63.07087900000000	0.27149200000000	0.00000000000000	0.12017000000000	0.00000000000000	0.00000000000000	0.00000000000000	0.00000000000000	0.00000000000000	0.00000000000000	0.00000000000000	23.25632400000000	0.00000000000000	0.00000000000000	0.00000000000000	0.00000000000000	
7.58996500000000	44.28618300000000	786.41409499999997	63.16159800000000	0.27071300000000	0.00000000000000	0.12016900000000	0.00000000000000	0.00000000000000	0.00000000000000	0.00000000000000	0.00000000000000	0.00000000000000	0.00000000000000	23.32173800000000	0.00000000000000	0.00000000000000	0.00000000000000	0.00000000000000	
7.59163800000000	43.77923800000000	787.65367000000003	63.24012100000000	0.26993300000000	0.00000000000000	0.12016700000000	0.00000000000000	0.00000000000000	0.00000000000000	0.00000000000000	0.00000000000000	0.00000000000000	0.00000000000000	23.37950500000000	0.00000000000000	0.00000000000000	0.00000000000000	0.00000000000000	
7.59331200000000	43.27841400000000	788.76176599999997	63.30622100000000	0.26914900000000	0.00000000000000	0.12016500000000	0.00000000000000	0.00000000000000	0.00000000000000	0.00000000000000	0.00000000000000	0.00000000000000	0.00000000000000	23.42945300000000	0.00000000000000	0.00000000000000	0.00000000000000	0.00000000000000	
7.59496900000000	42.78372800000000	789.73972200000003	63.35968400000000	0.26836300000000	0.00000000000000	0.12016200000000	0.00000000000000	0.00000000000000	0.00000000000000	0.00000000000000	0.00000000000000	0.00000000000000	0.00000000000000	23.47142700000000	0.00000000000000	0.00000000000000	0.00000000000000	0.00000000000000	
7.59663800000000	42.29516500000000	790.58905000000004	63.40031600000000	0.26757100000000	0.00000000000000	0.12016000000000	0.00000000000000	0.00000000000000	0.00000000000000	0.00000000000000	0.00000000000000	0.00000000000000	0.00000000000000	23.50529000000000	0.00000000000000	0.00000000000000	0.00000000000000	0.00000000000000	
7.59830200000000	41.81267800000000	791.31143199999997	63.42794300000000	0.26677500000000	0.00000000000000	0.12015700000000	0.00000000000000	0.00000000000000	0.00000000000000	0.00000000000000	0.00000000000000	0.00000000000000	0.00000000000000	23.53092600000000	0.00000000000000	0.00000000000000	0.00000000000000	0.00000000000000	
7.59996800000000	41.33619300000000	791.90872500000000	63.44241700000000	0.26597200000000	0.00000000000000	0.12015400000000	0.00000000000000	0.00000000000000	0.00000000000000	0.00000000000000	0.00000000000000	0.00000000000000	0.00000000000000	23.54824000000000	0.00000000000000	0.00000000000000	0.00000000000000	0.00000000000000	
7.60163200000000	40.86561200000000	792.38295300000004	63.44361300000000	0.26516200000000	0.00000000000000	0.12015100000000	0.00000000000000	0.00000000000000	0.00000000000000	0.00000000000000	0.00000000000000	0.00000000000000	0.00000000000000	23.55715800000000	0.00000000000000	0.00000000000000	0.00000000000000	0.00000000000000	
7.60329900000000	40.40081500000000	792.73631000000000	63.43143500000000	0.26434500000000	0.00000000000000	0.12014800000000	0.00000000000000	0.00000000000000	0.00000000000000	0.00000000000000	0.00000000000000	0.00000000000000	0.00000000000000	23.55762900000000	0.00000000000000	0.00000000000000	0.00000000000000	0.00000000000000	
7.60498000000000	39.94166700000000	792.97115199999996	63.40581900000000	0.26352000000000	0.00000000000000	0.12014400000000	0.00000000000000	0.00000000000000	0.00000000000000	0.00000000000000	0.00000000000000	0.00000000000000	0.00000000000000	23.54962800000000	0.00000000000000	0.00000000000000	0.00000000000000	0.00000000000000	
7.60663400000000	39.48801500000000	793.08999900000003	63.36673200000000	0.26268600000000	0.00000000000000	0.12014000000000	0.00000000000000	0.00000000000000	0.00000000000000	0.00000000000000	0.00000000000000	0.00000000000000	0.00000000000000	23.53315100000000	0.00000000000000	0.00000000000000	0.00000000000000	0.00000000000000	
7.60830100000000	39.03969700000000	793.09552799999994	63.31417300000000	0.26184300000000	0.00000000000000	0.12013600000000	0.00000000000000	0.00000000000000	0.00000000000000	0.00000000000000	0.00000000000000	0.00000000000000	0.00000000000000	23.50822100000000	0.00000000000000	0.00000000000000	0.00000000000000	0.00000000000000	
7.60996900000000	38.59654100000000	792.99056599999994	63.24817600000000	0.26099000000000	0.00000000000000	0.12013200000000	0.00000000000000	0.00000000000000	0.00000000000000	0.00000000000000	0.00000000000000	0.00000000000000	0.00000000000000	23.47488400000000	0.00000000000000	0.00000000000000	0.00000000000000	0.00000000000000	
7.61163000000000	38.15836900000000	792.77809000000002	63.16881100000000	0.26012800000000	0.00000000000000	0.12012700000000	0.00000000000000	0.00000000000000	0.00000000000000	0.00000000000000	0.00000000000000	0.00000000000000	0.00000000000000	23.43321300000000	0.00000000000000	0.00000000000000	0.00000000000000	0.00000000000000	
7.61329700000000	37.72500100000000	792.46121700000003	63.07618400000000	0.25925600000000	0.00000000000000	0.12012200000000	0.00000000000000	0.00000000000000	0.00000000000000	0.00000000000000	0.00000000000000	0.00000000000000	0.00000000000000	23.38330200000000	0.00000000000000	0.00000000000000	0.00000000000000	0.00000000000000	
7.61496800000000	37.29625500000000	792.04320099999995	62.97043500000000	0.25837300000000	0.00000000000000	0.12011600000000	0.00000000000000	0.00000000000000	0.00000000000000	0.00000000000000	0.00000000000000	0.00000000000000	0.00000000000000	23.32527300000000	0.00000000000000	0.00000000000000	0.00000000000000	0.00000000000000	
7.61662900000000	36.87194900000000	791.52742000000001	62.85174100000000	0.25747900000000	0.00000000000000	0.12011100000000	0.00000000000000	0.00000000000000	0.00000000000000	0.00000000000000	0.00000000000000	0.00000000000000	0.00000000000000	23.25927000000000	0.00000000000000	0.00000000000000	0.00000000000000	0.00000000000000	
7.61829900000000	36.45190800000000	790.91737799999999	62.72031500000000	0.25657600000000	0.00000000000000	0.12010400000000	0.00000000000000	0.00000000000000	0.00000000000000	0.00000000000000	0.00000000000000	0.00000000000000	0.00000000000000	23.18545900000000	0.00000000000000	0.00000000000000	0.00000000000000	0.00000000000000	
7.61996300000000	36.03595800000000	790.21668799999998	62.57640400000000	0.25566200000000	0.00000000000000	0.12009800000000	0.00000000000000	0.00000000000000	0.00000000000000	0.00000000000000	0.00000000000000	0.00000000000000	0.00000000000000	23.10403100000000	0.00000000000000	0.00000000000000	0.00000000000000	0.00000000000000	
7.62163700000000	35.62393600000000	789.42907100000002	62.42029100000000	0.25473700000000	0.00000000000000	0.12009100000000	0.00000000000000	0.00000000000000	0.00000000000000	0.00000000000000	0.00000000000000	0.00000000000000	0.00000000000000	23.01519600000000	0.00000000000000	0.00000000000000	0.00000000000000	0.00000000000000	
